<svg xmlns="http://www.w3.org/2000/svg" width="724" height="660" viewBox="0 0 724 660">
  <g id="Group_6_Copy_5" data-name="Group 6 Copy 5" opacity="0.134">
    <g id="Group_5" data-name="Group 5">
      <path id="Fill_1" data-name="Fill 1" d="M.5,659.831c-.2-3.112-.331-5.188-.5-7.9a83.371,83.371,0,0,1,8.139-2.806c46.3-10.878,83.7-35.609,113.194-72.938Q238.5,427.9,355.853,279.752,463.68,143.571,571.5,7.389c4.564-5.786,9.11-9.121,17.254-6.461a45.167,45.167,0,0,1,.962,6.753c.054,62.411-.045,124.827.191,187.238.023,6.091-2.445,10.244-5.93,14.624Q476.093,344.978,368.352,480.523q-68.008,85.492-135.884,171.09c-4.75,6.014-9.614,8.423-17.286,8.387-67.865-.292-135.734-.169-203.6-.169Z" fill="#fff"/>
      <path id="Fill_3" data-name="Fill 3" d="M277.585,184.057v7.374H0C47.661,127.4,94.266,64.788,142.494,0c1.157,12.457,1.987,22.363,3.008,32.255,2.718,26.3,8.521,51.843,20.113,75.712,19.536,40.24,50.27,66.262,94.86,74.156,5.317.945,10.744,1.232,17.109,1.935" transform="translate(446.415 467.856)" fill="#fff"/>
    </g>
  </g>
</svg>
