<svg xmlns="http://www.w3.org/2000/svg" width="19.114" height="19.118" viewBox="0 0 19.114 19.118">
  <path id="Phone_icon" data-name="Phone icon" d="M14.165,15.714l.682-.679.79-.785a1.936,1.936,0,0,1,2.879,0q1.205,1.194,2.445,2.444a1.951,1.951,0,0,1-.009,2.92,5.3,5.3,0,0,1-.845.633q-.129.083-.272.171c-.255.157-.527.317-.8.471-.163.093-.29.163-.353.2a4.76,4.76,0,0,1-3.645.3c-.1-.032-.29-.095-.546-.192-.422-.16-.89-.36-1.394-.6a20.428,20.428,0,0,1-4.215-2.7,18.489,18.489,0,0,1-1.538-1.433q-.587-.614-1.116-1.277a20.944,20.944,0,0,1-2.767-4.566c-.243-.546-.441-1.053-.6-1.51-.1-.277-.156-.478-.173-.549a4.49,4.49,0,0,1,.481-3.64c.041-.063.112-.171.205-.309.156-.23.318-.46.479-.676q.1-.14.2-.267a5.752,5.752,0,0,1,.463-.53,1.945,1.945,0,0,1,2.88,0c.353.346,1.877,1.872,2.429,2.428a1.944,1.944,0,0,1,0,2.935l-.825.826-.623.624-.231.231c.057.144.151.367.279.644A13.829,13.829,0,0,0,9.285,12.4a7.512,7.512,0,0,0,1.066,1.361,8.489,8.489,0,0,0,1.193.952,13.668,13.668,0,0,0,1.67.949c.3.143.533.246.694.312ZM8.134,10.119l0,.006ZM20.247,17.4q-1.239-1.248-2.439-2.438a.939.939,0,0,0-1.463,0l-.787.782-.684.681-.31.309a.922.922,0,0,1-.965.195c-.169-.066-.457-.189-.824-.366a14.656,14.656,0,0,1-1.794-1.019,9.476,9.476,0,0,1-1.335-1.067,8.48,8.48,0,0,1-1.214-1.544,14.816,14.816,0,0,1-.91-1.686c-.159-.345-.271-.615-.327-.764a.927.927,0,0,1,.2-.962l.283-.283L8.3,8.617l.824-.826a.952.952,0,0,0,0-1.517C8.571,5.721,7.05,4.2,6.7,3.856a.948.948,0,0,0-1.47,0,4.85,4.85,0,0,0-.378.435c-.06.076-.123.158-.187.245-.151.2-.305.421-.454.64-.089.131-.156.233-.2.3a3.529,3.529,0,0,0-.36,2.782c.024.09.078.269.166.524.147.43.335.91.565,1.427a19.947,19.947,0,0,0,2.633,4.346q.5.628,1.057,1.21a17.484,17.484,0,0,0,1.454,1.355,19.43,19.43,0,0,0,4.008,2.565c.477.229.92.418,1.316.568.234.089.4.145.516.182a3.8,3.8,0,0,0,2.826-.224c.069-.037.19-.1.348-.194.262-.149.524-.3.767-.453q.134-.083.255-.161a4.7,4.7,0,0,0,.675-.5A.956.956,0,0,0,20.247,17.4Z" transform="translate(-2.5 -2.5)" fill="#cbc0b6"/>
</svg>
