<svg xmlns="http://www.w3.org/2000/svg" width="15.998" height="15.999" viewBox="0 0 15.998 15.999">
  <g id="Group_1" data-name="Group 1" transform="translate(-867.002 -72.001)">
    <path id="Subtraction_1" data-name="Subtraction 1" d="M20463.758-4041h0l-4.623-4.421a6.292,6.292,0,0,1-3.754,1.238,6.4,6.4,0,0,1-6.379-6.4,6.4,6.4,0,0,1,6.379-6.41,6.4,6.4,0,0,1,6.379,6.41,6.364,6.364,0,0,1-1.33,3.9l4.57,4.376-1.242,1.309Zm-8.26-14a4.5,4.5,0,0,0-4.5,4.5,4.5,4.5,0,0,0,4.5,4.5,4.5,4.5,0,0,0,4.5-4.5A4.5,4.5,0,0,0,20455.5-4055Z" transform="translate(-19582 4129)" fill="#cbc0b6"/>
  </g>
</svg>
