<svg xmlns="http://www.w3.org/2000/svg" width="142" height="26" viewBox="0 0 142 26">
  <g id="Group_21" data-name="Group 21" transform="translate(-661 -5902)">
    <g id="Group_10" data-name="Group 10">
      <g id="Group_11" data-name="Group 11">
        <rect id="Rectangle_3" data-name="Rectangle 3" width="26" height="26" transform="translate(661 5902)" fill="#976a4c"/>
        <g id="Group_9" data-name="Group 9" transform="translate(-136 87)">
          <path id="Path_4" data-name="Path 4" d="M40.6,255.8h-7.68l-2.364-7.3-2.378,7.3-7.68-.014,6.212,4.519-2.378,7.3,6.212-4.519,6.212,4.519-2.364-7.3Z" transform="translate(779.65 5569.5)" fill="#fff"/>
          <path id="Path_5" data-name="Path 5" d="M96.765,334.551l-.532-1.651L92.4,335.684Z" transform="translate(717.809 5496.908)" fill="#976a4c"/>
        </g>
      </g>
      <g id="Group_17" data-name="Group 17" transform="translate(29)">
        <rect id="Rectangle_3-2" data-name="Rectangle 3" width="26" height="26" transform="translate(661 5902)" fill="#976a4c"/>
        <g id="Group_9-2" data-name="Group 9" transform="translate(-136 87)">
          <path id="Path_4-2" data-name="Path 4" d="M40.6,255.8h-7.68l-2.364-7.3-2.378,7.3-7.68-.014,6.212,4.519-2.378,7.3,6.212-4.519,6.212,4.519-2.364-7.3Z" transform="translate(779.65 5569.5)" fill="#fff"/>
          <path id="Path_5-2" data-name="Path 5" d="M96.765,334.551l-.532-1.651L92.4,335.684Z" transform="translate(717.809 5496.908)" fill="#976a4c"/>
        </g>
      </g>
      <g id="Group_18" data-name="Group 18" transform="translate(58)">
        <rect id="Rectangle_3-3" data-name="Rectangle 3" width="26" height="26" transform="translate(661 5902)" fill="#976a4c"/>
        <g id="Group_9-3" data-name="Group 9" transform="translate(-136 87)">
          <path id="Path_4-3" data-name="Path 4" d="M40.6,255.8h-7.68l-2.364-7.3-2.378,7.3-7.68-.014,6.212,4.519-2.378,7.3,6.212-4.519,6.212,4.519-2.364-7.3Z" transform="translate(779.65 5569.5)" fill="#fff"/>
          <path id="Path_5-3" data-name="Path 5" d="M96.765,334.551l-.532-1.651L92.4,335.684Z" transform="translate(717.809 5496.908)" fill="#976a4c"/>
        </g>
      </g>
      <g id="Group_19" data-name="Group 19" transform="translate(87)">
        <rect id="Rectangle_3-4" data-name="Rectangle 3" width="26" height="26" transform="translate(661 5902)" fill="#976a4c"/>
        <g id="Group_9-4" data-name="Group 9" transform="translate(-136 87)">
          <path id="Path_4-4" data-name="Path 4" d="M40.6,255.8h-7.68l-2.364-7.3-2.378,7.3-7.68-.014,6.212,4.519-2.378,7.3,6.212-4.519,6.212,4.519-2.364-7.3Z" transform="translate(779.65 5569.5)" fill="#fff"/>
          <path id="Path_5-4" data-name="Path 5" d="M96.765,334.551l-.532-1.651L92.4,335.684Z" transform="translate(717.809 5496.908)" fill="#976a4c"/>
        </g>
      </g>
      <g id="Group_20" data-name="Group 20" transform="translate(116)">
        <rect id="Rectangle_3-5" data-name="Rectangle 3" width="26" height="26" transform="translate(661 5902)" fill="#976a4c"/>
        <g id="Group_9-5" data-name="Group 9" transform="translate(-136 87)">
          <path id="Path_4-5" data-name="Path 4" d="M40.6,255.8h-7.68l-2.364-7.3-2.378,7.3-7.68-.014,6.212,4.519-2.378,7.3,6.212-4.519,6.212,4.519-2.364-7.3Z" transform="translate(779.65 5569.5)" fill="#fff"/>
          <path id="Path_5-5" data-name="Path 5" d="M96.765,334.551l-.532-1.651L92.4,335.684Z" transform="translate(717.809 5496.908)" fill="#976a4c"/>
        </g>
      </g>
    </g>
  </g>
</svg>
